<svg width="16" height="17" viewBox="0 0 16 17" fill="none" xmlns="http://www.w3.org/2000/svg">
<g clip-path="url(#clip0_4509_558)">
<path d="M11.3817 0.5H8.68522V11.3985C8.68522 12.6971 7.64814 13.7638 6.35752 13.7638C5.0669 13.7638 4.0298 12.6971 4.0298 11.3985C4.0298 10.1232 5.04386 9.07969 6.28839 9.03333V6.29711C3.54582 6.34347 1.33334 8.59276 1.33334 11.3985C1.33334 14.2276 3.59191 16.5 6.38058 16.5C9.16919 16.5 11.4278 14.2044 11.4278 11.3985V5.81013C12.4418 6.55218 13.6863 6.99276 15 7.01596V4.27971C12.9719 4.21015 11.3817 2.54058 11.3817 0.5Z" fill="white"/>
</g>
<defs>
<clipPath id="clip0_4509_558">
<rect width="16" height="16" fill="white" transform="translate(0 0.5)"/>
</clipPath>
</defs>
</svg>
