<svg width="136" height="49" viewBox="0 0 136 49" fill="none" xmlns="http://www.w3.org/2000/svg">
<rect x="0.5" y="1" width="135" height="47" rx="3.5" fill="white"/>
<rect x="0.5" y="1" width="135" height="47" rx="3.5" stroke="#185195"/>
<path d="M8.90723 16.4548L22.0061 8.9957C23.1397 8.33477 24.5566 8.33477 25.7217 8.9957L39.041 16.4862C39.7022 16.8639 40.0801 17.6192 39.9856 18.3746L39.5763 21.2701C38.3483 29.8937 32.5545 37.1639 24.4307 40.2797C24.0843 40.4056 23.675 40.4056 23.3286 40.2797C15.2992 37.1324 9.59996 29.8937 8.43491 21.3645L8.02558 18.3431C7.89963 17.5878 8.24599 16.8324 8.90723 16.4548Z" fill="#185195"/>
<path d="M32.9325 23.3473L24.1159 31.5617C22.8879 32.6947 20.9671 32.6317 19.865 31.4043L17.7869 29.1697L28.8391 18.8781C30.0671 17.7451 31.9878 17.808 33.0899 19.0355C34.2235 20.2944 34.1605 22.2142 32.9325 23.3473Z" fill="#113969"/>
<path d="M28.5557 27.4387L24.1474 31.5617C22.9194 32.6947 20.9987 32.6317 19.8966 31.4043L15.7717 26.9981C14.6381 25.7707 14.7011 23.8508 15.9291 22.7493C16.5274 22.1828 17.3146 21.931 18.1018 21.9625C18.8575 21.9939 19.6132 22.3087 20.18 22.9066L22.2267 25.1097L24.3049 27.3443C25.407 28.5403 27.3277 28.6032 28.5557 27.4387Z" fill="#113969"/>
<path opacity="0.4" d="M39.9541 18.469L39.5448 21.3645C38.3168 29.9881 32.523 37.2583 24.3992 40.4056C24.0528 40.5315 23.6435 40.5315 23.2971 40.4056C18.1331 38.3913 13.9138 34.6775 11.2688 29.9881C13.9453 34.0795 17.8497 37.3212 22.5414 39.1467C22.8878 39.304 23.2971 39.304 23.6435 39.1467C31.7673 35.9994 37.5611 28.7292 38.7891 20.1371L39.1984 17.2416C39.2299 17.0527 39.2299 16.8954 39.1984 16.7065C39.7652 17.0842 40.0486 17.7766 39.9541 18.469Z" fill="url(#paint0_linear_1893_29920)"/>
<path d="M32.4916 22.529L23.675 30.7434C22.447 31.8765 20.5262 31.8135 19.4241 30.5861L17.3459 28.3515L28.3982 18.0599C29.6262 16.9269 31.5469 16.9898 32.649 18.2172C33.7826 19.5076 33.7196 21.4275 32.4916 22.529Z" fill="white"/>
<path d="M28.1148 26.652L23.7065 30.7749C22.4785 31.9079 20.5577 31.845 19.4557 30.6176L15.3308 26.2114C14.1972 24.9839 14.2602 23.0641 15.4882 21.9625C16.0865 21.396 16.8737 21.1442 17.6609 21.1757C18.4166 21.2072 19.1723 21.5219 19.7391 22.1199L21.7858 24.323L23.8639 26.5576C24.966 27.7221 26.8868 27.8165 28.1148 26.652Z" fill="white"/>
<path d="M57.1543 12.9336L54.0781 21.5H53.0762L50 12.9336H51.043L53.0469 18.5762C53.1289 18.8027 53.2012 19.0195 53.2637 19.2266C53.3301 19.4336 53.3887 19.6328 53.4395 19.8242C53.4902 20.0156 53.5352 20.2012 53.5742 20.3809C53.6133 20.2012 53.6582 20.0156 53.709 19.8242C53.7598 19.6289 53.8184 19.4277 53.8848 19.2207C53.9512 19.0098 54.0254 18.7891 54.1074 18.5586L56.0996 12.9336H57.1543ZM60.6582 14.9609C61.2051 14.9609 61.6738 15.082 62.0645 15.3242C62.4551 15.5664 62.7539 15.9062 62.9609 16.3438C63.168 16.7773 63.2715 17.2852 63.2715 17.8672V18.4707H58.8359C58.8477 19.2246 59.0352 19.7988 59.3984 20.1934C59.7617 20.5879 60.2734 20.7852 60.9336 20.7852C61.3398 20.7852 61.6992 20.748 62.0117 20.6738C62.3242 20.5996 62.6484 20.4902 62.9844 20.3457V21.2012C62.6602 21.3457 62.3379 21.4512 62.0176 21.5176C61.7012 21.584 61.3262 21.6172 60.8926 21.6172C60.2754 21.6172 59.7363 21.4922 59.2754 21.2422C58.8184 20.9883 58.4629 20.6172 58.209 20.1289C57.9551 19.6406 57.8281 19.043 57.8281 18.3359C57.8281 17.6445 57.9434 17.0469 58.1738 16.543C58.4082 16.0352 58.7363 15.6445 59.1582 15.3711C59.584 15.0977 60.084 14.9609 60.6582 14.9609ZM60.6465 15.7578C60.127 15.7578 59.7129 15.9277 59.4043 16.2676C59.0957 16.6074 58.9121 17.082 58.8535 17.6914H62.252C62.248 17.3086 62.1875 16.9727 62.0703 16.6836C61.957 16.3906 61.7832 16.1641 61.5488 16.0039C61.3145 15.8398 61.0137 15.7578 60.6465 15.7578ZM67.8418 14.9609C67.9707 14.9609 68.1055 14.9688 68.2461 14.9844C68.3867 14.9961 68.5117 15.0137 68.6211 15.0371L68.498 15.9395C68.3926 15.9121 68.2754 15.8906 68.1465 15.875C68.0176 15.8594 67.8965 15.8516 67.7832 15.8516C67.5254 15.8516 67.2812 15.9043 67.0508 16.0098C66.8242 16.1113 66.625 16.2598 66.4531 16.4551C66.2812 16.6465 66.1465 16.8789 66.0488 17.1523C65.9512 17.4219 65.9023 17.7227 65.9023 18.0547V21.5H64.9238V15.0781H65.7324L65.8379 16.2617H65.8789C66.0117 16.0234 66.1719 15.8066 66.3594 15.6113C66.5469 15.4121 66.7637 15.2539 67.0098 15.1367C67.2598 15.0195 67.5371 14.9609 67.8418 14.9609ZM70.8066 15.0781V21.5H69.834V15.0781H70.8066ZM70.332 12.6758C70.4922 12.6758 70.6289 12.7285 70.7422 12.834C70.8594 12.9355 70.918 13.0957 70.918 13.3145C70.918 13.5293 70.8594 13.6895 70.7422 13.7949C70.6289 13.9004 70.4922 13.9531 70.332 13.9531C70.1641 13.9531 70.0234 13.9004 69.9102 13.7949C69.8008 13.6895 69.7461 13.5293 69.7461 13.3145C69.7461 13.0957 69.8008 12.9355 69.9102 12.834C70.0234 12.7285 70.1641 12.6758 70.332 12.6758ZM75.7285 15.8398H74.1289V21.5H73.1562V15.8398H72.0195V15.3711L73.1562 15.0488V14.6211C73.1562 14.082 73.2363 13.6445 73.3965 13.3086C73.5566 12.9688 73.7891 12.7188 74.0938 12.5586C74.3984 12.3984 74.7695 12.3184 75.207 12.3184C75.4531 12.3184 75.6777 12.3398 75.8809 12.3828C76.0879 12.4258 76.2695 12.4746 76.4258 12.5293L76.1738 13.2969C76.041 13.2539 75.8906 13.2148 75.7227 13.1797C75.5586 13.1406 75.3906 13.1211 75.2188 13.1211C74.8477 13.1211 74.5723 13.2422 74.3926 13.4844C74.2168 13.7227 74.1289 14.0977 74.1289 14.6094V15.0781H75.7285V15.8398ZM77.8789 15.0781V21.5H76.9062V15.0781H77.8789ZM77.4043 12.6758C77.5645 12.6758 77.7012 12.7285 77.8145 12.834C77.9316 12.9355 77.9902 13.0957 77.9902 13.3145C77.9902 13.5293 77.9316 13.6895 77.8145 13.7949C77.7012 13.9004 77.5645 13.9531 77.4043 13.9531C77.2363 13.9531 77.0957 13.9004 76.9824 13.7949C76.873 13.6895 76.8184 13.5293 76.8184 13.3145C76.8184 13.0957 76.873 12.9355 76.9824 12.834C77.0957 12.7285 77.2363 12.6758 77.4043 12.6758ZM82.5078 21.6172C81.9297 21.6172 81.4199 21.498 80.9785 21.2598C80.5371 21.0215 80.1934 20.6582 79.9473 20.1699C79.7012 19.6816 79.5781 19.0664 79.5781 18.3242C79.5781 17.5469 79.707 16.9121 79.9648 16.4199C80.2266 15.9238 80.5859 15.5566 81.043 15.3184C81.5 15.0801 82.0195 14.9609 82.6016 14.9609C82.9219 14.9609 83.2305 14.9941 83.5273 15.0605C83.8281 15.123 84.0742 15.2031 84.2656 15.3008L83.9727 16.1152C83.7773 16.0371 83.5508 15.9668 83.293 15.9043C83.0391 15.8418 82.8008 15.8105 82.5781 15.8105C82.1328 15.8105 81.7617 15.9062 81.4648 16.0977C81.1719 16.2891 80.9512 16.5703 80.8027 16.9414C80.6582 17.3125 80.5859 17.7695 80.5859 18.3125C80.5859 18.832 80.6562 19.2754 80.7969 19.6426C80.9414 20.0098 81.1543 20.291 81.4355 20.4863C81.7207 20.6777 82.0762 20.7734 82.502 20.7734C82.8418 20.7734 83.1484 20.7383 83.4219 20.668C83.6953 20.5938 83.9434 20.5078 84.166 20.4102V21.2773C83.9512 21.3867 83.7109 21.4707 83.4453 21.5293C83.1836 21.5879 82.8711 21.6172 82.5078 21.6172ZM88.0918 14.9727C88.8574 14.9727 89.4258 15.1445 89.7969 15.4883C90.168 15.832 90.3535 16.3809 90.3535 17.1348V21.5H89.6445L89.457 20.5508H89.4102C89.2305 20.7852 89.043 20.9824 88.8477 21.1426C88.6523 21.2988 88.4258 21.418 88.168 21.5C87.9141 21.5781 87.6016 21.6172 87.2305 21.6172C86.8398 21.6172 86.4922 21.5488 86.1875 21.4121C85.8867 21.2754 85.6484 21.0684 85.4727 20.791C85.3008 20.5137 85.2148 20.1621 85.2148 19.7363C85.2148 19.0957 85.4688 18.6035 85.9766 18.2598C86.4844 17.916 87.2578 17.7285 88.2969 17.6973L89.4043 17.6504V17.2578C89.4043 16.7031 89.2852 16.3145 89.0469 16.0918C88.8086 15.8691 88.4727 15.7578 88.0391 15.7578C87.7031 15.7578 87.3828 15.8066 87.0781 15.9043C86.7734 16.002 86.4844 16.1172 86.2109 16.25L85.9121 15.5117C86.2012 15.3633 86.5332 15.2363 86.9082 15.1309C87.2832 15.0254 87.6777 14.9727 88.0918 14.9727ZM89.3926 18.3359L88.4141 18.377C87.6133 18.4082 87.0488 18.5391 86.7207 18.7695C86.3926 19 86.2285 19.3262 86.2285 19.748C86.2285 20.1152 86.3398 20.3867 86.5625 20.5625C86.7852 20.7383 87.0801 20.8262 87.4473 20.8262C88.0176 20.8262 88.4844 20.668 88.8477 20.3516C89.2109 20.0352 89.3926 19.5605 89.3926 18.9277V18.3359ZM94.6426 21.6172C93.8301 21.6172 93.1855 21.3398 92.709 20.7852C92.2363 20.2305 92 19.4062 92 18.3125C92 17.207 92.2422 16.373 92.7266 15.8105C93.2109 15.2441 93.8555 14.9609 94.6602 14.9609C95 14.9609 95.2969 15.0059 95.5508 15.0957C95.8047 15.1855 96.0234 15.3066 96.207 15.459C96.3906 15.6074 96.5449 15.7773 96.6699 15.9688H96.7402C96.7246 15.8477 96.709 15.6816 96.6934 15.4707C96.6777 15.2598 96.6699 15.0879 96.6699 14.9551V12.3828H97.6426V21.5H96.8574L96.7109 20.5859H96.6699C96.5488 20.7773 96.3945 20.9512 96.207 21.1074C96.0234 21.2637 95.8027 21.3887 95.5449 21.4824C95.291 21.5723 94.9902 21.6172 94.6426 21.6172ZM94.7949 20.8086C95.4824 20.8086 95.9688 20.6133 96.2539 20.2227C96.5391 19.832 96.6816 19.252 96.6816 18.4824V18.3066C96.6816 17.4902 96.5449 16.8633 96.2715 16.4258C96.002 15.9883 95.5098 15.7695 94.7949 15.7695C94.1973 15.7695 93.75 16 93.4531 16.4609C93.1562 16.918 93.0078 17.543 93.0078 18.3359C93.0078 19.125 93.1543 19.7344 93.4473 20.1641C93.7441 20.5938 94.1934 20.8086 94.7949 20.8086ZM102.107 14.9727C102.873 14.9727 103.441 15.1445 103.812 15.4883C104.184 15.832 104.369 16.3809 104.369 17.1348V21.5H103.66L103.473 20.5508H103.426C103.246 20.7852 103.059 20.9824 102.863 21.1426C102.668 21.2988 102.441 21.418 102.184 21.5C101.93 21.5781 101.617 21.6172 101.246 21.6172C100.855 21.6172 100.508 21.5488 100.203 21.4121C99.9023 21.2754 99.6641 21.0684 99.4883 20.791C99.3164 20.5137 99.2305 20.1621 99.2305 19.7363C99.2305 19.0957 99.4844 18.6035 99.9922 18.2598C100.5 17.916 101.273 17.7285 102.312 17.6973L103.42 17.6504V17.2578C103.42 16.7031 103.301 16.3145 103.062 16.0918C102.824 15.8691 102.488 15.7578 102.055 15.7578C101.719 15.7578 101.398 15.8066 101.094 15.9043C100.789 16.002 100.5 16.1172 100.227 16.25L99.9277 15.5117C100.217 15.3633 100.549 15.2363 100.924 15.1309C101.299 15.0254 101.693 14.9727 102.107 14.9727ZM103.408 18.3359L102.43 18.377C101.629 18.4082 101.064 18.5391 100.736 18.7695C100.408 19 100.244 19.3262 100.244 19.748C100.244 20.1152 100.355 20.3867 100.578 20.5625C100.801 20.7383 101.096 20.8262 101.463 20.8262C102.033 20.8262 102.5 20.668 102.863 20.3516C103.227 20.0352 103.408 19.5605 103.408 18.9277V18.3359ZM112.508 14.9609C113.309 14.9609 113.947 15.2363 114.424 15.7871C114.9 16.3379 115.139 17.166 115.139 18.2715C115.139 19.002 115.029 19.6152 114.811 20.1113C114.592 20.6074 114.283 20.9824 113.885 21.2363C113.49 21.4902 113.023 21.6172 112.484 21.6172C112.145 21.6172 111.846 21.5723 111.588 21.4824C111.33 21.3926 111.109 21.2715 110.926 21.1191C110.742 20.9668 110.59 20.8008 110.469 20.6211H110.398C110.41 20.7734 110.424 20.957 110.439 21.1719C110.459 21.3867 110.469 21.5742 110.469 21.7344V24.3711H109.49V15.0781H110.293L110.422 16.0273H110.469C110.594 15.832 110.746 15.6543 110.926 15.4941C111.105 15.3301 111.324 15.2012 111.582 15.1074C111.844 15.0098 112.152 14.9609 112.508 14.9609ZM112.338 15.7812C111.893 15.7812 111.533 15.8672 111.26 16.0391C110.99 16.2109 110.793 16.4688 110.668 16.8125C110.543 17.1523 110.477 17.5801 110.469 18.0957V18.2832C110.469 18.8262 110.527 19.2852 110.645 19.6602C110.766 20.0352 110.963 20.3203 111.236 20.5156C111.514 20.7109 111.885 20.8086 112.35 20.8086C112.748 20.8086 113.08 20.7012 113.346 20.4863C113.611 20.2715 113.809 19.9727 113.938 19.5898C114.07 19.2031 114.137 18.7598 114.137 18.2598C114.137 17.502 113.988 16.9004 113.691 16.4551C113.398 16.0059 112.947 15.7812 112.338 15.7812ZM122.375 18.2773C122.375 18.8047 122.307 19.2754 122.17 19.6895C122.033 20.1035 121.836 20.4531 121.578 20.7383C121.32 21.0234 121.008 21.2422 120.641 21.3945C120.277 21.543 119.865 21.6172 119.404 21.6172C118.975 21.6172 118.58 21.543 118.221 21.3945C117.865 21.2422 117.557 21.0234 117.295 20.7383C117.037 20.4531 116.836 20.1035 116.691 19.6895C116.551 19.2754 116.48 18.8047 116.48 18.2773C116.48 17.5742 116.6 16.9766 116.838 16.4844C117.076 15.9883 117.416 15.6113 117.857 15.3535C118.303 15.0918 118.832 14.9609 119.445 14.9609C120.031 14.9609 120.543 15.0918 120.98 15.3535C121.422 15.6152 121.764 15.9941 122.006 16.4902C122.252 16.9824 122.375 17.5781 122.375 18.2773ZM117.488 18.2773C117.488 18.793 117.557 19.2402 117.693 19.6191C117.83 19.998 118.041 20.291 118.326 20.498C118.611 20.7051 118.979 20.8086 119.428 20.8086C119.873 20.8086 120.238 20.7051 120.523 20.498C120.812 20.291 121.025 19.998 121.162 19.6191C121.299 19.2402 121.367 18.793 121.367 18.2773C121.367 17.7656 121.299 17.3242 121.162 16.9531C121.025 16.5781 120.814 16.2891 120.529 16.0859C120.244 15.8828 119.875 15.7812 119.422 15.7812C118.754 15.7812 118.264 16.002 117.951 16.4434C117.643 16.8848 117.488 17.4961 117.488 18.2773ZM126.975 14.9609C127.104 14.9609 127.238 14.9688 127.379 14.9844C127.52 14.9961 127.645 15.0137 127.754 15.0371L127.631 15.9395C127.525 15.9121 127.408 15.8906 127.279 15.875C127.15 15.8594 127.029 15.8516 126.916 15.8516C126.658 15.8516 126.414 15.9043 126.184 16.0098C125.957 16.1113 125.758 16.2598 125.586 16.4551C125.414 16.6465 125.279 16.8789 125.182 17.1523C125.084 17.4219 125.035 17.7227 125.035 18.0547V21.5H124.057V15.0781H124.865L124.971 16.2617H125.012C125.145 16.0234 125.305 15.8066 125.492 15.6113C125.68 15.4121 125.896 15.2539 126.143 15.1367C126.393 15.0195 126.67 14.9609 126.975 14.9609Z" fill="#002E17"/>
<g clip-path="url(#clip0_1893_29920)">
<path fill-rule="evenodd" clip-rule="evenodd" d="M55.3303 29.0086C55.3877 28.5834 55.3421 28.2607 55.1943 28.049C55.0445 27.8368 54.7962 27.7306 54.4512 27.7306H54.3344L53.9981 30.2864C54.4062 30.277 54.7163 30.1721 54.9266 29.9668C55.1406 29.7614 55.276 29.445 55.3303 29.0086ZM57.717 30.4139C57.3601 30.8534 56.8653 31.2089 56.2338 31.4733L57.717 36.2206H54.5665L53.7654 32.0754L53.2207 36.2206H50.25L51.6552 25.5071H55.0739C56.2313 25.5071 57.1024 25.8022 57.6926 26.395C58.2785 26.9872 58.5075 27.7921 58.3753 28.8095C58.2916 29.4336 58.0719 29.9712 57.717 30.4139ZM62.3986 31.5172C62.4541 31.0933 62.4285 30.7731 62.3237 30.5577C62.2183 30.3455 62.0292 30.2412 61.7641 30.2412C61.555 30.2412 61.3715 30.3455 61.2131 30.5539C61.0583 30.7618 60.9192 31.082 60.8 31.5172H62.3986ZM64.2149 29.4305C64.6873 30.0528 64.8401 30.9878 64.6779 32.2374C64.6567 32.3838 64.6443 32.4962 64.6305 32.574C64.6186 32.6475 64.603 32.7166 64.5837 32.78H60.6347L60.6216 32.8836C60.5485 33.4356 60.5585 33.8324 60.6502 34.0729C60.7457 34.3135 60.9316 34.4359 61.2131 34.4359C61.4227 34.4359 61.598 34.3643 61.7459 34.2268C61.895 34.0893 62.0167 33.8776 62.1097 33.592H64.3828C64.1613 34.4748 63.7333 35.1668 63.0937 35.6736C62.4572 36.1791 61.6872 36.4309 60.7969 36.4309C59.7449 36.4309 58.9799 36.0918 58.5006 35.4105C58.0202 34.7266 57.8636 33.7558 58.029 32.4962C58.1968 31.229 58.6098 30.245 59.2769 29.5486C59.9402 28.8478 60.7913 28.4986 61.8208 28.4986C62.9439 28.4986 63.7395 28.8095 64.2149 29.4305ZM68.9789 36.1018C68.7712 36.2142 68.5471 36.2972 68.3144 36.3505C68.081 36.4052 67.8184 36.4309 67.5338 36.4309C66.5704 36.4309 65.8604 36.0799 65.3955 35.3721C64.9344 34.6664 64.7834 33.6974 64.9432 32.4648C65.1029 31.2591 65.5159 30.294 66.1811 29.5737C66.8456 28.8528 67.6555 28.4986 68.6027 28.4986C68.8641 28.4986 69.1074 28.5244 69.3246 28.5696C69.5449 28.6236 69.7508 28.6946 69.9367 28.7988L69.6347 31.0952C69.5499 31.0394 69.46 30.9979 69.367 30.9715C69.2722 30.9445 69.1699 30.9325 69.0575 30.9325C68.7774 30.9325 68.5316 31.0682 68.33 31.342C68.1278 31.6152 67.9943 31.9894 67.9319 32.4648C67.8689 32.9414 67.9001 33.3031 68.0243 33.5436C68.1453 33.7859 68.3624 33.9097 68.6688 33.9097C68.7555 33.9097 68.8516 33.8959 68.9546 33.8676C69.0575 33.8419 69.1674 33.8054 69.2847 33.7571L68.9789 36.1018ZM69.6297 36.2206L71.1628 24.5306H73.8652L72.3334 36.2206H69.6297ZM77.7057 32.4648C77.7756 31.9367 77.7725 31.5329 77.6926 31.2591C77.6158 30.9797 77.4655 30.8422 77.2477 30.8422C77.0331 30.8422 76.8515 30.9797 76.7049 31.2528C76.5583 31.5272 76.4459 31.9316 76.3779 32.4648C76.308 32.9998 76.3092 33.3998 76.3835 33.6698C76.4572 33.9373 76.6044 34.0729 76.8216 34.0729C77.0449 34.0729 77.2277 33.936 77.3781 33.6585C77.5303 33.3803 77.6402 32.9834 77.7057 32.4648ZM78.2585 28.7071H80.9609L79.9757 36.2206H77.2751L77.3831 35.3942C77.068 35.7558 76.7579 36.0158 76.4491 36.1835C76.1445 36.3493 75.8213 36.4309 75.4875 36.4309C74.745 36.4309 74.2084 36.0843 73.8802 35.3879C73.5501 34.6934 73.4671 33.7182 73.6287 32.4648C73.7959 31.202 74.1323 30.2274 74.6383 29.5372C75.1437 28.8427 75.7739 28.4986 76.5283 28.4986C76.8683 28.4986 77.1672 28.5803 77.4318 28.7442C77.6895 28.908 77.9328 29.1674 78.1519 29.5222L78.2585 28.7071ZM80.7819 36.2206L81.7671 28.7071H84.3641L84.2193 29.8224C84.5281 29.3922 84.8682 29.0738 85.2364 28.8647C85.6057 28.6613 86.0194 28.5589 86.4768 28.5589C86.9041 28.5589 87.2436 28.6619 87.4982 28.8722C87.7497 29.0795 87.9106 29.3966 87.9818 29.8224C88.247 29.3922 88.5571 29.0738 88.909 28.8647C89.2602 28.6613 89.6677 28.5589 90.1282 28.5589C90.6985 28.5589 91.1091 28.7278 91.3643 29.0713C91.6183 29.413 91.7037 29.9159 91.617 30.5715L90.877 36.2206H88.1721L88.7455 31.8462C88.7786 31.6132 88.7568 31.4387 88.6906 31.3257C88.6232 31.2126 88.5022 31.1593 88.3337 31.1593C88.1777 31.1593 88.0467 31.2208 87.9419 31.3527C87.8389 31.4814 87.7702 31.6622 87.739 31.8902L87.1719 36.2206H84.4851L85.056 31.8462C85.0891 31.6132 85.0703 31.4387 85.0036 31.3257C84.9349 31.2126 84.8139 31.1593 84.6448 31.1593C84.4826 31.1593 84.3491 31.2208 84.2398 31.3527C84.1351 31.4814 84.0663 31.6622 84.0371 31.8902L83.4718 36.2206H80.7819ZM96.2393 31.5172C96.2942 31.0933 96.2693 30.7731 96.162 30.5577C96.0578 30.3455 95.8724 30.2412 95.6054 30.2412C95.3957 30.2412 95.2129 30.3455 95.0563 30.5539C94.8985 30.7618 94.7593 31.082 94.6395 31.5172H96.2393ZM98.0563 29.4305C98.5274 30.0528 98.6821 30.9878 98.5193 32.2374C98.5006 32.3838 98.4862 32.4962 98.4731 32.574C98.4619 32.6475 98.4431 32.7166 98.4251 32.78H94.4754L94.4623 32.8836C94.3899 33.4356 94.3999 33.8324 94.4916 34.0729C94.5858 34.3135 94.7724 34.4359 95.0563 34.4359C95.266 34.4359 95.4394 34.3643 95.5867 34.2268C95.7339 34.0893 95.8574 33.8776 95.951 33.592H98.2254C98.0039 34.4748 97.5721 35.1668 96.9338 35.6736C96.2967 36.1791 95.5311 36.4309 94.6364 36.4309C93.585 36.4309 92.82 36.0918 92.3414 35.4105C91.8604 34.7266 91.705 33.7558 91.8697 32.4962C92.0375 31.229 92.4499 30.245 93.1189 29.5486C93.7791 28.8478 94.6307 28.4986 95.6622 28.4986C96.7834 28.4986 97.5808 28.8095 98.0563 29.4305Z" fill="#A4C929"/>
<path fill-rule="evenodd" clip-rule="evenodd" d="M102.507 32.4817H103.688L103.61 28.5106L102.507 32.4817ZM105.68 25.5071L106.605 36.2206H103.708L103.688 34.6451H101.933L101.498 36.2206H98.5991L102.333 25.5071H105.68ZM112.171 30.8008C112.318 29.6748 112.347 28.9119 112.253 28.5049C112.163 28.0993 111.941 27.8971 111.577 27.8971C111.213 27.8971 110.932 28.1005 110.731 28.5131C110.531 28.9238 110.362 29.6855 110.214 30.8008C110.067 31.9103 110.04 32.6708 110.133 33.0809C110.228 33.4903 110.452 33.6975 110.818 33.6975C111.179 33.6975 111.459 33.4953 111.653 33.0909C111.85 32.6883 112.024 31.9248 112.171 30.8008ZM114.659 26.7529C115.228 27.7231 115.395 29.0965 115.163 30.8723C115.027 31.8946 114.794 32.7832 114.46 33.5336C114.13 34.2884 113.69 34.9245 113.145 35.4413L114.28 36.8052L111.751 37.9506L110.805 36.4159C110.771 36.4159 110.72 36.4203 110.648 36.4253C110.579 36.4291 110.526 36.4309 110.491 36.4309C109.212 36.4309 108.286 35.948 107.716 34.9785C107.142 34.0134 106.97 32.6438 107.201 30.8723C107.435 29.1022 107.962 27.7295 108.79 26.7586C109.614 25.7841 110.659 25.2968 111.921 25.2968C113.184 25.2968 114.095 25.7841 114.659 26.7529ZM115.542 32.3895L116.445 25.5071H119.418L118.478 32.6745C118.437 32.9898 118.462 33.2196 118.555 33.3691C118.647 33.5166 118.807 33.592 119.041 33.592C119.277 33.592 119.463 33.5166 119.594 33.3691C119.727 33.2196 119.81 32.9898 119.852 32.6745L120.79 25.5071H123.776L122.874 32.3895C122.693 33.786 122.262 34.8115 121.587 35.4589C120.91 36.1101 119.941 36.4309 118.668 36.4309C117.405 36.4309 116.523 36.1101 116.021 35.4589C115.52 34.8115 115.36 33.786 115.542 32.3895ZM123.376 36.2206L124.776 25.5071H127.75L126.346 36.2206H123.376Z" fill="#02793E"/>
</g>
<defs>
<linearGradient id="paint0_linear_1893_29920" x1="24.504" y1="28.8578" x2="30.2886" y2="17.5621" gradientUnits="userSpaceOnUse">
<stop stop-color="#113969"/>
<stop offset="1" stop-color="#113969" stop-opacity="0"/>
</linearGradient>
<clipPath id="clip0_1893_29920">
<rect width="77.5" height="13.4199" fill="white" transform="translate(50.25 24.5)"/>
</clipPath>
</defs>
</svg>
