<?xml version="1.0" encoding="UTF-8"?>
<svg id="Camada_1" data-name="Camada 1" xmlns="http://www.w3.org/2000/svg" version="1.1" xmlns:xlink="http://www.w3.org/1999/xlink" viewBox="0 0 703.8 1080">
  <defs>
    <style>
      .cls-1 {
        fill: url(#Gradiente_sem_nome_2);
      }

      .cls-1, .cls-2, .cls-3, .cls-4, .cls-5, .cls-6 {
        stroke-width: 0px;
      }

      .cls-2 {
        fill: #000;
      }

      .cls-7 {
        stroke: url(#Gradiente_sem_nome_25);
      }

      .cls-7, .cls-8, .cls-9 {
        fill: none;
        stroke-miterlimit: 10;
      }

      .cls-7, .cls-9 {
        stroke-width: 3px;
      }

      .cls-3 {
        fill: url(#Gradiente_sem_nome_6);
      }

      .cls-4 {
        fill: #121212;
      }

      .cls-8 {
        stroke: #282828;
        stroke-width: 2px;
      }

      .cls-5 {
        fill: url(#Gradiente_sem_nome_7);
        fill-rule: evenodd;
      }

      .cls-6 {
        fill: url(#Gradiente_sem_nome_3);
      }

      .cls-9 {
        stroke: url(#Gradiente_sem_nome_25-2);
        stroke-dasharray: 0 0 11.9 11.9;
      }
    </style>
    <linearGradient id="Gradiente_sem_nome_25" data-name="Gradiente sem nome 25" x1="98.8" y1="572.7" x2="378.9" y2="292.5" gradientUnits="userSpaceOnUse">
      <stop offset="0" stop-color="#000"/>
      <stop offset=".4" stop-color="#cf8230"/>
      <stop offset=".7" stop-color="gold"/>
      <stop offset=".9" stop-color="gold"/>
    </linearGradient>
    <linearGradient id="Gradiente_sem_nome_25-2" data-name="Gradiente sem nome 25" x1="211.9" y1="685.8" x2="492" y2="405.6" xlink:href="#Gradiente_sem_nome_25"/>
    <linearGradient id="Gradiente_sem_nome_2" data-name="Gradiente sem nome 2" x1="506.2" y1="364.7" x2="573.6" y2="364.7" gradientTransform="translate(0 1077.9) scale(1 -1)" gradientUnits="userSpaceOnUse">
      <stop offset="0" stop-color="#cd7f32"/>
      <stop offset=".7" stop-color="gold"/>
      <stop offset=".9" stop-color="gold"/>
    </linearGradient>
    <linearGradient id="Gradiente_sem_nome_3" data-name="Gradiente sem nome 3" x1="230.9" y1="697.8" x2="267.4" y2="697.8" gradientTransform="translate(0 1077.9) scale(1 -1)" gradientUnits="userSpaceOnUse">
      <stop offset="0" stop-color="#cd7f32"/>
      <stop offset=".7" stop-color="gold"/>
      <stop offset=".9" stop-color="gold"/>
    </linearGradient>
    <linearGradient id="Gradiente_sem_nome_6" data-name="Gradiente sem nome 6" x1="477.4" y1="672.9" x2="535.1" y2="672.9" gradientTransform="translate(0 1077.9) scale(1 -1)" gradientUnits="userSpaceOnUse">
      <stop offset="0" stop-color="#cd7f32"/>
      <stop offset=".7" stop-color="gold"/>
      <stop offset=".9" stop-color="gold"/>
    </linearGradient>
    <linearGradient id="Gradiente_sem_nome_7" data-name="Gradiente sem nome 7" x1="164.9" y1="230.9" x2="225" y2="273.5" gradientTransform="translate(-36.8 873.9) rotate(13.5) scale(1 -1)" gradientUnits="userSpaceOnUse">
      <stop offset="0" stop-color="#cd7f32"/>
      <stop offset=".7" stop-color="gold"/>
      <stop offset=".9" stop-color="gold"/>
    </linearGradient>
  </defs>
  <rect class="cls-2" y="0" width="703.8" height="1080"/>
  <g>
    <path class="cls-7" d="M244.6,420.9c2,0,4-.1,6-.1h0s6,0,6,0"/>
    <path class="cls-9" d="M268.5,420.8h184.8c69,0,124.9,55.9,124.9,124.9s-55.9,124.9-124.9,124.9h-202.7c-69,0-124.9-55.9-124.9-124.9s49.6-118.3,113-124.3"/>
  </g>
  <path class="cls-1" d="M573.4,713.1c-4.6,0-8.9-.9-12.9-2.6-4.1-1.8-7.6-4.2-10.6-7.2s-5.4-6.6-7.2-10.6c-1.7-4.1-2.6-8.3-2.6-12.9s0,0,0,0,0,0,0,0c0,4.6-.9,8.9-2.7,12.9-1.7,4.1-4.1,7.6-7.1,10.6s-6.6,5.4-10.6,7.2c-4.1,1.7-8.3,2.6-12.9,2.6s-.1,0-.1,0,0,0,.1,0c4.6,0,8.9.9,12.9,2.7,4.1,1.7,7.6,4.1,10.6,7.1s5.4,6.6,7.1,10.6c1.8,4.1,2.7,8.3,2.7,12.9s0,0,0,0,0,0,0,0c0-4.6.9-8.9,2.6-12.9,1.8-4.1,4.2-7.6,7.2-10.6s6.6-5.4,10.6-7.1c4.1-1.8,8.3-2.7,12.9-2.7s0,0,0,0,0,0,0,0Z"/>
  <path class="cls-6" d="M267.3,380.1c-2.5,0-4.8-.5-7-1.4-2.2-1-4.1-2.3-5.8-3.9-1.6-1.6-2.9-3.6-3.9-5.8-.9-2.2-1.4-4.5-1.4-7s0,0,0,0h0c0,2.5-.5,4.8-1.4,7s-2.2,4.1-3.9,5.8c-1.6,1.6-3.6,2.9-5.8,3.9-2.2.9-4.5,1.4-7,1.4s0,0,0,0h0c2.5,0,4.8.5,7,1.4s4.1,2.2,5.8,3.9c1.6,1.6,2.9,3.6,3.9,5.8,1,2.2,1.4,4.5,1.4,7s0,0,0,0h0c0-2.5.5-4.8,1.4-7,1-2.2,2.3-4.1,3.9-5.8,1.6-1.6,3.6-2.9,5.8-3.9s4.5-1.4,7-1.4,0,0,0,0h0Z"/>
  <g>
    <path class="cls-4" d="M578.1,405c0,39.7-32.2,71.9-71.9,71.9s-71.9-32.2-71.9-71.9,32.2-71.9,71.9-71.9,71.9,32.2,71.9,71.9Z"/>
    <path class="cls-8" d="M578.1,405c0,39.7-32.2,71.9-71.9,71.9s-71.9-32.2-71.9-71.9,32.2-71.9,71.9-71.9,71.9,32.2,71.9,71.9Z"/>
  </g>
  <g>
    <path class="cls-4" d="M292.6,670.5c0,39.7-32.2,71.9-71.9,71.9s-71.9-32.2-71.9-71.9,32.2-71.9,71.9-71.9,71.9,32.2,71.9,71.9Z"/>
    <path class="cls-8" d="M292.6,670.5c0,39.7-32.2,71.9-71.9,71.9s-71.9-32.2-71.9-71.9,32.2-71.9,71.9-71.9,71.9,32.2,71.9,71.9Z"/>
  </g>
  <path class="cls-3" d="M535.1,398.5c-1.9,1.3-4.1,2.3-6.4,3.1-6.1,2.2-14,3.4-22.5,3.4s-16.4-1.2-22.5-3.4c-2.3-.8-4.5-1.8-6.4-3.1v10.6c0,5.7,12.9,10.3,28.8,10.3s28.8-4.6,28.8-10.3v-10.6h.2ZM535.1,388.5v-6.2c0-5.7-12.9-10.3-28.8-10.3s-28.8,4.6-28.8,10.3v6.2c0,5.7,12.9,10.3,28.8,10.3s28.8-4.6,28.8-10.3ZM528.7,422.2c-6,2.2-14,3.4-22.5,3.4s-16.4-1.2-22.5-3.4c-2.3-.8-4.5-1.8-6.4-3.1v8.5c0,5.7,12.9,10.3,28.8,10.3s28.8-4.6,28.8-10.3v-8.5c-1.9,1.3-4.1,2.3-6.4,3.1h.2Z"/>
  <path class="cls-5" d="M210.5,689.5l-5.6,5.9-25-24,24-25,5.9,5.6-18.4,19.2,19.1,18.4h0ZM230.9,651.6l5.6-5.9,25,24-24,25-5.9-5.6,18.4-19.2-19.1-18.4h0Z"/>
</svg>