<svg xmlns="http://www.w3.org/2000/svg" viewBox="0 0 24 24"><path fill="#4285F4" d="M12 11.5V8.5h7.5c.3 1.5.5 3.2.5 5 0 1.8-.2 3.5-.5 5H12v-3h4.8c.2-.8.3-1.7.3-2.5 0-.8-.1-1.7-.3-2.5H12Z"/><path fill="#FBBC04" d="M5.5 14.2 4.8 16l-2.3 1.6C4.2 20.8 7.8 23 12 23c2.5 0 4.7-.8 6.4-2.2l-5.4-4.2c-.8.5-1.8.8-2.9.8-2.2 0-4.1-1.4-4.8-3.4Z"/><path fill="#34A853" d="M2.5 7.8C1.5 9.5 1 11.2 1 13s.5 3.5 1.5 5.2C5.2 15.4 8.3 13 12 13v-5.5C8.5 7.5 5.2 5.2 2.5 7.8Z"/><path fill="#EA4335" d="M12 1C7.8 1 4.2 3.2 2.5 6.8 5.2 9.4 8.5 11.5 12 11.5V1Z"/></svg>
