<svg xmlns="http://www.w3.org/2000/svg" viewBox="0 0 24 24" fill="none"><path fill="#0081FB" d="M12 2C6.48 2 2 6.48 2 12s4.48 10 10 10 10-4.48 10-10S17.52 2 12 2Zm4.2 10.9c0 .66-.54 1.2-1.2 1.2h-1.8v1.8c0 .66-.54 1.2-1.2 1.2s-1.2-.54-1.2-1.2v-1.8H9.8c-.66 0-1.2-.54-1.2-1.2s.54-1.2 1.2-1.2h1.8V9.8c0-.66.54-1.2 1.2-1.2s1.2.54 1.2 1.2v1.8h1.8c.66 0 1.2.54 1.2 1.2Z"/><path fill="#0064E0" d="M12 2v4.6c2.55 0 4.6 2.05 4.6 4.6H12V2Z"/><path fill="#0082FB" d="M12 17.4V22c4.97 0 9-4.03 9-9h-4.6c0 2.55-2.05 4.6-4.6 4.6Z"/></svg>
